Coordinates
version=1
nRows=24
nColumns=24
inDegrees=yes

Units are S.I. units (second, meters, Newtons, ...)
Angles are in degrees.

endheader
time	pelvis_tilt	pelvis_list	pelvis_rotation	pelvis_tx	pelvis_ty	pelvis_tz	hip_flexion_r	hip_adduction_r	hip_rotation_r	knee_angle_r	ankle_angle_r	subtalar_angle_r	mtp_angle_r	hip_flexion_l	hip_adduction_l	hip_rotation_l	knee_angle_l	ankle_angle_l	subtalar_angle_l	mtp_angle_l	lumbar_extension	lumbar_bending	lumbar_rotation
      4.61000000	    -11.18327535	      7.33616214	      0.48571212	     -0.22887487	     -0.02048077	      0.64128065	     26.51451975	    -11.59591491	     -5.63642896	    -63.46522808	     -4.05944848	      0.53758958	     15.63073748	     18.28339842	      9.57104285	     -3.65407513	    -17.82789081	      4.02959195	      5.92198478	     11.85054635	      8.18056659	    -10.00895181	     -3.00951157
      4.61500000	    -11.16579720	      7.00512961	      0.74866146	     -0.22203610	     -0.01949088	      0.64108022	     27.24675415	    -11.34790453	     -5.93280375	    -62.87132938	     -3.87750192	      1.18044411	     15.82505568	     17.45346860	      9.37816373	     -3.03026811	    -17.26457898	      4.17172792	      5.68904578	     11.54115449	      8.12100115	     -9.69349232	     -3.42350206
      4.62000000	    -11.13822665	      6.68255150	      1.01781477	     -0.21519078	     -0.01857306	      0.64089171	     27.94360232	    -11.11194825	     -6.23883337	    -62.20379034	     -3.72398434	      1.70074519	     15.95299641	     16.61496212	      9.18294113	     -2.40267183	    -16.70085771	      4.30499734	      5.44108333	     11.20922145	      8.05143262	     -9.38596386	     -3.83392796
      4.62500000	    -11.10100032	      6.37236100	      1.28836971	     -0.20834513	     -0.01773918	      0.64070510	     28.60933917	    -10.89430946	     -6.55142998	    -61.46971524	     -3.59297277	      2.09396948	     16.00863242	     15.76842940	      8.98870774	     -1.76509690	    -16.13711011	      4.44255516	      5.18820901	     10.84447801	      7.97322613	     -9.08994678	     -4.22438065
      4.63000000	    -11.06779584	      6.06655606	      1.54218133	     -0.20153173	     -0.01700606	      0.64056276	     29.26853838	    -10.66885709	     -6.83483655	    -60.67416046	     -3.49062053	      2.38511583	     15.98450735	     14.94489333	      8.77402192	     -1.20387423	    -15.59401005	      4.59300041	      4.98474405	     10.51945010	      7.89663618	     -8.79684689	     -4.62060516
      4.63500000	    -11.02132066	      5.79911430	      1.77286016	     -0.19469925	     -0.01636037	      0.64042964	     29.90191342	    -10.48194923	     -7.09708556	    -59.82669847	     -3.38705552	      2.57470912	     15.83849407	     14.09447269	      8.59193062	     -0.59687125	    -15.03110789	      4.73413660	      4.69429123	     10.03367238	      7.81382186	     -8.53483611	     -4.94322845
      4.64000000	    -10.98841255	      5.50285338	      2.04553255	     -0.18792338	     -0.01581976	      0.64030209	     30.51460017	    -10.28409721	     -7.40385787	    -58.90518594	     -3.30965042	      2.63016723	     15.66057913	     13.30154003	      8.35459870	     -0.12429448	    -14.52308935	      4.91400414	      4.62997102	      9.81674246	      7.73006542	     -8.25483932	     -5.36159299
      4.64500000	    -10.93268905	      5.23355845	      2.29084609	     -0.18112948	     -0.01534498	      0.64019976	     31.08587583	    -10.10796006	     -7.68548084	    -57.92478630	     -3.23439935	      2.60170523	     15.37081010	     12.47351251	      8.13458906	      0.37426721	    -13.99417738	      5.07285863	      4.47908280	      9.51643507	      7.62767847	     -7.99332672	     -5.71967527
      4.65000000	    -10.88603657	      4.97842435	      2.52337834	     -0.17439081	     -0.01498735	      0.64010692	     31.65698066	     -9.94546381	     -7.94741954	    -56.89354800	     -3.17163313	      2.48143914	     15.00585012	     11.67284313	      7.91362176	      0.81191008	    -13.48264122	      5.24547018	      4.36960314	      9.24387910	      7.52882109	     -7.74105391	     -6.08157009
      4.65500000	    -10.83384465	      4.73671782	      2.74974733	     -0.16765192	     -0.01471921	      0.64004252	     32.19764423	     -9.79820662	     -8.20481447	    -55.80152118	     -3.11249059	      2.28927339	     14.55365830	     10.87333242	      7.69277837	      1.22294097	    -12.97956252	      5.42826507	      4.28378777	      8.98122496	      7.42608377	     -7.50320315	     -6.42389882
      4.66000000	    -10.76505959	      4.51893237	      2.97459876	     -0.16089852	     -0.01453855	      0.63995004	     32.69430181	     -9.69322402	     -8.47323568	    -54.66274607	     -3.01777168	      2.12846915	     13.90558189	     10.05313015	      7.49054847	      1.64631509	    -12.47363889	      5.61700252	      4.19451149	      8.65364749	      7.30631899	     -7.28286598	     -6.71760756
      4.66500000	    -10.76538416	      4.29275202	      3.15308257	     -0.15420102	     -0.01451026	      0.63994378	     33.25873328	     -9.54236946	     -8.67415940	    -53.44433703	     -3.01677850	      1.76830023	     13.43582555	      9.34700203	      7.25581399	      1.87314538	    -12.01226855	      5.80120062	      4.18910680	      8.51467371	      7.26090083	     -7.04766693	     -7.01510618
      4.67000000	    -10.65523763	      4.10347671	      3.37231162	     -0.14754338	     -0.01449757	      0.63992483	     33.66855193	     -9.46091695	     -8.92627748	    -52.19335093	     -2.93649232	      1.43332881	     12.68581512	      8.51147197	      7.05414253	      2.23312624	    -11.53893972	      6.03019797	      4.19322410	      8.29518223	      7.07459230	     -6.85896588	     -7.37236305
      4.67500000	    -10.62452637	      3.90785185	      3.54593058	     -0.14085534	     -0.01463120	      0.63992108	     34.14334952	     -9.35707939	     -9.14321222	    -50.86531572	     -2.90887268	      1.06258159	     11.98046701	      7.78101753	      6.83645800	      2.45539120	    -11.09068865	      6.22909931	      4.20705687	      8.13135948	      6.98899577	     -6.64906131	     -7.63115242
      4.68000000	    -10.52840349	      3.73383130	      3.71463963	     -0.13415917	     -0.01482829	      0.63991148	     34.52211989	     -9.28519258	     -9.36205951	    -49.51530575	     -2.77737988	      0.90036056	     10.90536468	      6.97083424	      6.63109385	      2.73821377	    -10.63613426	      6.48767459	      4.24606699	      7.90597758	      6.83039360	     -6.45061934	     -7.87577367
      4.68500000	    -10.57562086	      3.57136008	      3.82824124	     -0.12752228	     -0.01527728	      0.63998264	     35.05772717	     -9.18617927	     -9.50269577	    -48.07768325	     -2.78836425	      0.43000460	     10.40228062	      6.35547736	      6.43327014	      2.85341044	    -10.23190072	      6.73045515	      4.28034374	      7.86025057	      6.83039732	     -6.26127477	     -8.09041295
      4.69000000	    -10.42126961	      3.40967762	      3.99742268	     -0.12086421	     -0.01556098	      0.64001483	     35.30382293	     -9.12695279	     -9.73668327	    -46.59513287	     -2.63259604	      0.28219419	      9.20216626	      5.51504339	      6.22095280	      3.06317288	     -9.82608735	      6.98018418	      4.38469960	      7.68930974	      6.58773135	     -6.07920755	     -8.34798280
      4.69500000	    -10.40331251	      3.28885096	      4.12999161	     -0.11429218	     -0.01612504	      0.64011244	     35.71251926	     -9.08495980	     -9.91089232	    -45.06777849	     -2.59897962	     -0.14308514	      8.44485934	      4.85407814	      6.05355243	      3.19719533	     -9.46621026	      7.23957562	      4.46588672	      7.63417937	      6.49357606	     -5.93862151	     -8.57902680
      4.70000000	    -10.37777230	      3.13588098	      4.22901029	     -0.10763158	     -0.01676081	      0.64019360	     36.07495463	     -9.01188943	    -10.11771082	    -43.47306904	     -2.56319235	     -0.44208197	      7.73362817	      4.18080119	      5.84818473	      3.29721534	     -9.10304989	      7.52522407	      4.52504386	      7.58548514	      6.40881023	     -5.74714552	     -8.76361525
      4.70500000	    -10.29257388	      3.01008077	      4.34991857	     -0.10103236	     -0.01741338	      0.64031323	     36.33682482	     -8.95866029	    -10.28580948	    -41.83471602	     -2.44551787	     -0.62340717	      6.81329967	      3.46580835	      5.65947897	      3.44577024	     -8.78427072	      7.81527695	      4.63677537	      7.52439802	      6.23250089	     -5.59204344	     -8.96443275
      4.71000000	    -10.23204233	      2.89255251	      4.42816928	     -0.09434613	     -0.01821460	      0.64040483	     36.61248552	     -8.91372052	    -10.46756873	    -40.19721078	     -2.23986445	     -0.56197232	      5.64488874	      2.78169975	      5.48587492	      3.51936101	     -8.48758389	      8.12879346	      4.69993244	      7.43767021	      6.10451184	     -5.42242337	     -9.12022440
      4.71500000	    -10.23222501	      2.78767653	      4.52940240	     -0.08773987	     -0.01914450	      0.64056511	     36.93365730	     -8.87706690	    -10.63811466	    -38.49074029	     -2.19467455	     -0.78039922	      4.99324046	      2.19056396	      5.32056919	      3.66003393	     -8.23136070	      8.43438523	      4.77751105	      7.43275495	      6.02564314	     -5.28706554	     -9.28109002
      4.72000000	    -10.29312859	      2.68070628	      4.57839460	     -0.08105774	     -0.02025155	      0.64071726	     37.30212211	     -8.82538919	    -10.77263886	    -36.74834640	     -2.11924959	     -0.79267510	      4.60151962	      1.68203668	      5.16300614	      3.73924636	     -8.02112320	      8.76165674	      4.78984559	      7.44755862	      6.03389231	     -5.13186047	     -9.36552175
      4.72500000	    -10.16095379	      2.53956639	      4.70587319	     -0.07431778	     -0.02118002	      0.64082685	     37.40245939	     -8.77798523	    -11.09567117	    -34.99709800	     -2.02537678	     -0.89865874	      3.78657338	      0.95462797	      4.94639551	      3.87688451	     -7.78792305	      9.09568461	      4.88085949	      7.41742807	      5.81582240	     -4.94050891	     -9.57015391
